<mxfile host="app.diagrams.net" modified="2023-07-21T03:36:30.255Z" agent="Mozilla/5.0 (Windows NT 10.0; Win64; x64) AppleWebKit/537.36 (KHTML, like Gecko) Chrome/114.0.0.0 Safari/537.36" etag="yCVtou_bFB63s28FicgZ" version="21.6.2" type="github">
  <diagram name="第 1 页" id="DsP0ySoP5KuVm8gyESEJ">
    <mxGraphModel dx="1687" dy="874" grid="1" gridSize="10" guides="1" tooltips="1" connect="1" arrows="1" fold="1" page="1" pageScale="1" pageWidth="827" pageHeight="1169" math="0" shadow="0">
      <root>
        <mxCell id="0" />
        <mxCell id="1" parent="0" />
        <mxCell id="JTM_hWVtwOP50AUBhIqX-2" value="" style="swimlane;startSize=0;" parent="1" vertex="1">
          <mxGeometry x="80" y="80" width="480" height="880" as="geometry" />
        </mxCell>
        <mxCell id="JTM_hWVtwOP50AUBhIqX-4" value="基础部分" style="rounded=1;whiteSpace=wrap;html=1;fillColor=#e1d5e7;strokeColor=#9673a6;" parent="JTM_hWVtwOP50AUBhIqX-2" vertex="1">
          <mxGeometry x="320" y="280" width="120" height="60" as="geometry" />
        </mxCell>
        <mxCell id="dblVW6kIsXTNqUXVf4vE-32" value="KYC" style="ellipse;whiteSpace=wrap;html=1;aspect=fixed;" vertex="1" parent="JTM_hWVtwOP50AUBhIqX-2">
          <mxGeometry x="350" y="190" width="60" height="60" as="geometry" />
        </mxCell>
        <mxCell id="JTM_hWVtwOP50AUBhIqX-3" value="" style="swimlane;startSize=0;" parent="1" vertex="1">
          <mxGeometry x="560" y="80" width="520" height="880" as="geometry" />
        </mxCell>
        <mxCell id="JTM_hWVtwOP50AUBhIqX-5" value="基础部分" style="rounded=1;whiteSpace=wrap;html=1;fillColor=#d5e8d4;strokeColor=#82b366;" parent="JTM_hWVtwOP50AUBhIqX-3" vertex="1">
          <mxGeometry x="40" y="280" width="120" height="60" as="geometry" />
        </mxCell>
        <mxCell id="dblVW6kIsXTNqUXVf4vE-14" style="edgeStyle=orthogonalEdgeStyle;rounded=0;orthogonalLoop=1;jettySize=auto;html=1;exitX=0.5;exitY=1;exitDx=0;exitDy=0;entryX=0.5;entryY=0;entryDx=0;entryDy=0;" edge="1" parent="JTM_hWVtwOP50AUBhIqX-3" source="JTM_hWVtwOP50AUBhIqX-7" target="JTM_hWVtwOP50AUBhIqX-8">
          <mxGeometry relative="1" as="geometry" />
        </mxCell>
        <mxCell id="dblVW6kIsXTNqUXVf4vE-16" style="edgeStyle=orthogonalEdgeStyle;rounded=0;orthogonalLoop=1;jettySize=auto;html=1;exitX=1;exitY=0.5;exitDx=0;exitDy=0;entryX=0.5;entryY=0;entryDx=0;entryDy=0;" edge="1" parent="JTM_hWVtwOP50AUBhIqX-3" source="JTM_hWVtwOP50AUBhIqX-7" target="dblVW6kIsXTNqUXVf4vE-15">
          <mxGeometry relative="1" as="geometry" />
        </mxCell>
        <mxCell id="dblVW6kIsXTNqUXVf4vE-19" style="edgeStyle=orthogonalEdgeStyle;rounded=0;orthogonalLoop=1;jettySize=auto;html=1;exitX=1;exitY=0;exitDx=0;exitDy=0;entryX=0;entryY=0;entryDx=0;entryDy=0;" edge="1" parent="JTM_hWVtwOP50AUBhIqX-3" source="JTM_hWVtwOP50AUBhIqX-7" target="dblVW6kIsXTNqUXVf4vE-18">
          <mxGeometry relative="1" as="geometry" />
        </mxCell>
        <mxCell id="JTM_hWVtwOP50AUBhIqX-7" value="单据系统" style="ellipse;whiteSpace=wrap;html=1;aspect=fixed;" parent="JTM_hWVtwOP50AUBhIqX-3" vertex="1">
          <mxGeometry x="200" y="280" width="60" height="60" as="geometry" />
        </mxCell>
        <mxCell id="dblVW6kIsXTNqUXVf4vE-17" style="edgeStyle=orthogonalEdgeStyle;rounded=0;orthogonalLoop=1;jettySize=auto;html=1;exitX=1;exitY=0.5;exitDx=0;exitDy=0;entryX=0;entryY=0.5;entryDx=0;entryDy=0;" edge="1" parent="JTM_hWVtwOP50AUBhIqX-3" source="JTM_hWVtwOP50AUBhIqX-8" target="dblVW6kIsXTNqUXVf4vE-15">
          <mxGeometry relative="1" as="geometry" />
        </mxCell>
        <mxCell id="dblVW6kIsXTNqUXVf4vE-23" style="edgeStyle=orthogonalEdgeStyle;rounded=0;orthogonalLoop=1;jettySize=auto;html=1;exitX=0.5;exitY=1;exitDx=0;exitDy=0;" edge="1" parent="JTM_hWVtwOP50AUBhIqX-3" source="JTM_hWVtwOP50AUBhIqX-8" target="dblVW6kIsXTNqUXVf4vE-21">
          <mxGeometry relative="1" as="geometry" />
        </mxCell>
        <mxCell id="JTM_hWVtwOP50AUBhIqX-8" value="（融资订单）&lt;br&gt;系统" style="ellipse;whiteSpace=wrap;html=1;aspect=fixed;" parent="JTM_hWVtwOP50AUBhIqX-3" vertex="1">
          <mxGeometry x="200" y="400" width="60" height="60" as="geometry" />
        </mxCell>
        <mxCell id="dblVW6kIsXTNqUXVf4vE-5" style="edgeStyle=orthogonalEdgeStyle;rounded=0;orthogonalLoop=1;jettySize=auto;html=1;exitX=0.5;exitY=1;exitDx=0;exitDy=0;entryX=0.5;entryY=0;entryDx=0;entryDy=0;" edge="1" parent="JTM_hWVtwOP50AUBhIqX-3" source="dblVW6kIsXTNqUXVf4vE-1" target="JTM_hWVtwOP50AUBhIqX-7">
          <mxGeometry relative="1" as="geometry" />
        </mxCell>
        <mxCell id="dblVW6kIsXTNqUXVf4vE-1" value="线下" style="ellipse;whiteSpace=wrap;html=1;aspect=fixed;" vertex="1" parent="JTM_hWVtwOP50AUBhIqX-3">
          <mxGeometry x="200" y="190" width="60" height="60" as="geometry" />
        </mxCell>
        <mxCell id="dblVW6kIsXTNqUXVf4vE-4" style="edgeStyle=orthogonalEdgeStyle;rounded=0;orthogonalLoop=1;jettySize=auto;html=1;exitX=0.5;exitY=1;exitDx=0;exitDy=0;" edge="1" parent="JTM_hWVtwOP50AUBhIqX-3" source="dblVW6kIsXTNqUXVf4vE-2" target="dblVW6kIsXTNqUXVf4vE-1">
          <mxGeometry relative="1" as="geometry" />
        </mxCell>
        <mxCell id="dblVW6kIsXTNqUXVf4vE-2" value="内部/外部" style="ellipse;whiteSpace=wrap;html=1;aspect=fixed;" vertex="1" parent="JTM_hWVtwOP50AUBhIqX-3">
          <mxGeometry x="200" y="80" width="60" height="60" as="geometry" />
        </mxCell>
        <mxCell id="dblVW6kIsXTNqUXVf4vE-6" style="edgeStyle=orthogonalEdgeStyle;rounded=0;orthogonalLoop=1;jettySize=auto;html=1;exitX=0.5;exitY=1;exitDx=0;exitDy=0;entryX=0.5;entryY=0;entryDx=0;entryDy=0;" edge="1" parent="JTM_hWVtwOP50AUBhIqX-3" source="dblVW6kIsXTNqUXVf4vE-3" target="JTM_hWVtwOP50AUBhIqX-7">
          <mxGeometry relative="1" as="geometry">
            <Array as="points">
              <mxPoint x="360" y="260" />
              <mxPoint x="230" y="260" />
            </Array>
          </mxGeometry>
        </mxCell>
        <mxCell id="dblVW6kIsXTNqUXVf4vE-3" value="线上" style="ellipse;whiteSpace=wrap;html=1;aspect=fixed;" vertex="1" parent="JTM_hWVtwOP50AUBhIqX-3">
          <mxGeometry x="330" y="190" width="60" height="60" as="geometry" />
        </mxCell>
        <mxCell id="dblVW6kIsXTNqUXVf4vE-8" value="API、FTP、或者其他" style="edgeStyle=orthogonalEdgeStyle;rounded=0;orthogonalLoop=1;jettySize=auto;html=1;exitX=0.5;exitY=1;exitDx=0;exitDy=0;entryX=0.5;entryY=0;entryDx=0;entryDy=0;" edge="1" parent="JTM_hWVtwOP50AUBhIqX-3" source="dblVW6kIsXTNqUXVf4vE-7" target="dblVW6kIsXTNqUXVf4vE-3">
          <mxGeometry relative="1" as="geometry" />
        </mxCell>
        <mxCell id="dblVW6kIsXTNqUXVf4vE-7" value="第三方平台" style="ellipse;whiteSpace=wrap;html=1;aspect=fixed;" vertex="1" parent="JTM_hWVtwOP50AUBhIqX-3">
          <mxGeometry x="330" y="80" width="60" height="60" as="geometry" />
        </mxCell>
        <mxCell id="dblVW6kIsXTNqUXVf4vE-11" style="edgeStyle=orthogonalEdgeStyle;rounded=0;orthogonalLoop=1;jettySize=auto;html=1;exitX=0;exitY=0.5;exitDx=0;exitDy=0;" edge="1" parent="JTM_hWVtwOP50AUBhIqX-3" source="dblVW6kIsXTNqUXVf4vE-9" target="dblVW6kIsXTNqUXVf4vE-7">
          <mxGeometry relative="1" as="geometry" />
        </mxCell>
        <mxCell id="dblVW6kIsXTNqUXVf4vE-9" value="Amazon" style="ellipse;whiteSpace=wrap;html=1;aspect=fixed;" vertex="1" parent="JTM_hWVtwOP50AUBhIqX-3">
          <mxGeometry x="420" y="10" width="60" height="60" as="geometry" />
        </mxCell>
        <mxCell id="dblVW6kIsXTNqUXVf4vE-12" style="edgeStyle=orthogonalEdgeStyle;rounded=0;orthogonalLoop=1;jettySize=auto;html=1;exitX=0;exitY=0.5;exitDx=0;exitDy=0;entryX=1;entryY=0.5;entryDx=0;entryDy=0;" edge="1" parent="JTM_hWVtwOP50AUBhIqX-3" source="dblVW6kIsXTNqUXVf4vE-10" target="dblVW6kIsXTNqUXVf4vE-7">
          <mxGeometry relative="1" as="geometry" />
        </mxCell>
        <mxCell id="dblVW6kIsXTNqUXVf4vE-10" value="ERP公司" style="ellipse;whiteSpace=wrap;html=1;aspect=fixed;" vertex="1" parent="JTM_hWVtwOP50AUBhIqX-3">
          <mxGeometry x="420" y="80" width="60" height="60" as="geometry" />
        </mxCell>
        <mxCell id="dblVW6kIsXTNqUXVf4vE-15" value="分销系统" style="ellipse;whiteSpace=wrap;html=1;aspect=fixed;" vertex="1" parent="JTM_hWVtwOP50AUBhIqX-3">
          <mxGeometry x="320" y="400" width="60" height="60" as="geometry" />
        </mxCell>
        <mxCell id="dblVW6kIsXTNqUXVf4vE-18" value="可以有库存以及被消耗的概念&lt;br&gt;（库存系统）" style="ellipse;whiteSpace=wrap;html=1;aspect=fixed;" vertex="1" parent="JTM_hWVtwOP50AUBhIqX-3">
          <mxGeometry x="400" y="280" width="60" height="60" as="geometry" />
        </mxCell>
        <mxCell id="dblVW6kIsXTNqUXVf4vE-20" value="KYB" style="ellipse;whiteSpace=wrap;html=1;aspect=fixed;" vertex="1" parent="JTM_hWVtwOP50AUBhIqX-3">
          <mxGeometry x="70" y="190" width="60" height="60" as="geometry" />
        </mxCell>
        <mxCell id="dblVW6kIsXTNqUXVf4vE-25" style="edgeStyle=orthogonalEdgeStyle;rounded=0;orthogonalLoop=1;jettySize=auto;html=1;exitX=0.5;exitY=1;exitDx=0;exitDy=0;" edge="1" parent="JTM_hWVtwOP50AUBhIqX-3" source="dblVW6kIsXTNqUXVf4vE-21" target="dblVW6kIsXTNqUXVf4vE-24">
          <mxGeometry relative="1" as="geometry" />
        </mxCell>
        <mxCell id="dblVW6kIsXTNqUXVf4vE-30" style="edgeStyle=orthogonalEdgeStyle;rounded=0;orthogonalLoop=1;jettySize=auto;html=1;exitX=0;exitY=0.5;exitDx=0;exitDy=0;entryX=1;entryY=0.5;entryDx=0;entryDy=0;" edge="1" parent="JTM_hWVtwOP50AUBhIqX-3" source="dblVW6kIsXTNqUXVf4vE-21" target="dblVW6kIsXTNqUXVf4vE-22">
          <mxGeometry relative="1" as="geometry" />
        </mxCell>
        <mxCell id="dblVW6kIsXTNqUXVf4vE-21" value="支付系统（放款/还款）" style="ellipse;whiteSpace=wrap;html=1;aspect=fixed;" vertex="1" parent="JTM_hWVtwOP50AUBhIqX-3">
          <mxGeometry x="200" y="520" width="60" height="60" as="geometry" />
        </mxCell>
        <mxCell id="dblVW6kIsXTNqUXVf4vE-31" style="edgeStyle=orthogonalEdgeStyle;rounded=0;orthogonalLoop=1;jettySize=auto;html=1;exitX=0.5;exitY=1;exitDx=0;exitDy=0;entryX=0;entryY=0.5;entryDx=0;entryDy=0;" edge="1" parent="JTM_hWVtwOP50AUBhIqX-3" source="dblVW6kIsXTNqUXVf4vE-22" target="dblVW6kIsXTNqUXVf4vE-24">
          <mxGeometry relative="1" as="geometry" />
        </mxCell>
        <mxCell id="dblVW6kIsXTNqUXVf4vE-22" value="转放款&lt;br&gt;（资金方购买）" style="ellipse;whiteSpace=wrap;html=1;aspect=fixed;" vertex="1" parent="JTM_hWVtwOP50AUBhIqX-3">
          <mxGeometry x="100" y="520" width="60" height="60" as="geometry" />
        </mxCell>
        <mxCell id="dblVW6kIsXTNqUXVf4vE-27" style="edgeStyle=orthogonalEdgeStyle;rounded=0;orthogonalLoop=1;jettySize=auto;html=1;exitX=1;exitY=0.5;exitDx=0;exitDy=0;entryX=0;entryY=0.5;entryDx=0;entryDy=0;" edge="1" parent="JTM_hWVtwOP50AUBhIqX-3" source="dblVW6kIsXTNqUXVf4vE-24" target="dblVW6kIsXTNqUXVf4vE-26">
          <mxGeometry relative="1" as="geometry" />
        </mxCell>
        <mxCell id="dblVW6kIsXTNqUXVf4vE-24" value="清算/结算" style="ellipse;whiteSpace=wrap;html=1;aspect=fixed;" vertex="1" parent="JTM_hWVtwOP50AUBhIqX-3">
          <mxGeometry x="200" y="620" width="60" height="60" as="geometry" />
        </mxCell>
        <mxCell id="dblVW6kIsXTNqUXVf4vE-26" value="渠道推荐/BD提成/资方" style="ellipse;whiteSpace=wrap;html=1;aspect=fixed;" vertex="1" parent="JTM_hWVtwOP50AUBhIqX-3">
          <mxGeometry x="320" y="620" width="60" height="60" as="geometry" />
        </mxCell>
        <mxCell id="dblVW6kIsXTNqUXVf4vE-28" value="对账" style="ellipse;whiteSpace=wrap;html=1;aspect=fixed;" vertex="1" parent="1">
          <mxGeometry x="760" y="830" width="60" height="60" as="geometry" />
        </mxCell>
        <mxCell id="dblVW6kIsXTNqUXVf4vE-29" style="edgeStyle=orthogonalEdgeStyle;rounded=0;orthogonalLoop=1;jettySize=auto;html=1;exitX=0.5;exitY=1;exitDx=0;exitDy=0;" edge="1" parent="1" source="dblVW6kIsXTNqUXVf4vE-24" target="dblVW6kIsXTNqUXVf4vE-28">
          <mxGeometry relative="1" as="geometry" />
        </mxCell>
      </root>
    </mxGraphModel>
  </diagram>
</mxfile>
